<svg width="21" height="19" viewBox="0 0 21 19" fill="none" xmlns="http://www.w3.org/2000/svg">
<g id="promotion">
<path id="Shape" d="M4.66679 8.34494L7.04774 12.4688C5.96686 13.0929 4.71081 13.818 3.61117 14.453C2.47232 15.1105 1.01631 14.7205 0.358756 13.5815C-0.294766 12.4504 0.0842333 10.9905 1.23022 10.3291L4.66679 8.34494Z" stroke="white" stroke-width="0.75"/>
<path id="Shape_2" d="M15.891 9.67524C16.1922 10.1965 15.8251 10.8505 15.223 10.8653L14.7766 10.953L14.7667 10.9026L9.65833 2.05449L9.625 2.02829L9.91068 1.66433C10.2246 1.15016 10.9742 1.15884 11.2754 1.6806C19.2037 15.412 9.20151 -1.91175 15.891 9.67524V9.67524Z" stroke="white" stroke-width="0.75"/>
<path id="Shape_3" d="M7.85581 17.0432C8.18474 17.6122 7.98958 18.3403 7.42008 18.6692C6.8515 18.9982 6.12202 18.8024 5.79387 18.2336L3.61133 14.453L5.67327 13.2625C5.69218 13.2953 7.85255 17.0374 7.85581 17.0432Z" stroke="white" stroke-width="0.75"/>
<path id="Shape_4" d="M14.6338 4.32275L15.4274 5.69738L14.4496 7.17835L12.8623 4.42909L14.6338 4.32275Z" fill="white"/>
<path id="Shape_5" d="M14.767 10.9026L14.7769 10.953L7.04794 12.4688L4.66699 8.34494L9.62529 2.02829L9.65862 2.05449L14.767 10.9026Z" stroke="white" stroke-width="0.75"/>
<path id="Shape_6" d="M19.3702 1.73593L17.159 2.9664C16.9676 3.07305 16.8986 3.31471 17.0052 3.50615C17.1116 3.69743 17.3531 3.76672 17.545 3.65992L19.7561 2.42945C19.9476 2.3228 20.0165 2.08114 19.9098 1.8897C19.8033 1.69811 19.5617 1.62929 19.3702 1.73593V1.73593Z" stroke="white" stroke-width="0.75"/>
<path id="Shape_7" d="M19.1384 5.84588L17.6052 5.43511C17.3935 5.37837 17.1758 5.50393 17.1191 5.71568C17.0624 5.92742 17.1881 6.1449 17.3998 6.20163L18.9332 6.61241C19.1462 6.66961 19.3627 6.54203 19.4191 6.33184C19.4759 6.1201 19.3501 5.90246 19.1384 5.84588Z" stroke="white" stroke-width="0.75"/>
<path id="Shape_8" d="M15.2857 0.294197L14.8745 1.82756C14.8177 2.0393 14.9433 2.25678 15.155 2.31367C15.3666 2.37024 15.5843 2.245 15.6411 2.0331L16.0522 0.49974C16.109 0.287997 15.9834 0.0703628 15.7717 0.0136291C15.5601 -0.0431045 15.3424 0.0824535 15.2857 0.294197V0.294197Z" stroke="white" stroke-width="0.75"/>
</g>
</svg>
