<svg width="21" height="20" viewBox="0 0 21 20" fill="none" xmlns="http://www.w3.org/2000/svg">
<g id="add member">
<path id="Stroke-1" d="M16.0256 14.0198C14.5176 12.9068 12.563 12.1878 10.4082 12.0638C13.3567 11.7318 15.6564 9.27279 15.6564 6.25279C15.6564 3.00679 13.0087 0.374786 9.74322 0.374786C6.47778 0.374786 3.83002 3.00679 3.83002 6.25279C3.83002 9.27279 6.12971 11.7318 9.07826 12.0638C4.21733 12.3438 0.376465 15.6478 0.376465 19.6918" stroke="#CFCFD4" stroke-width="0.75"/>
<path id="Stroke-3" fill-rule="evenodd" clip-rule="evenodd" d="M19.9727 16.9944C19.9727 18.2234 18.9707 19.2194 17.7344 19.2194C16.499 19.2194 15.4971 18.2234 15.4971 16.9944C15.4971 15.7654 16.499 14.7694 17.7344 14.7694C18.9707 14.7694 19.9727 15.7654 19.9727 16.9944Z" stroke="#CFCFD4" stroke-width="0.75"/>
<path id="Stroke-5" d="M17.7349 16.1438V17.8458" stroke="#CFCFD4" stroke-width="0.5"/>
<path id="Stroke-7" d="M16.8784 16.9944H18.5906" stroke="#CFCFD4" stroke-width="0.5"/>
</g>
</svg>
